<!DOCTYPE svg PUBLIC "-//W3C//DTD SVG 1.1//EN" "http://www.w3.org/Graphics/SVG/1.1/DTD/svg11.dtd">
<svg version="1.1" xmlns="http://www.w3.org/2000/svg" xmlns:xlink="http://www.w3.org/1999/xlink" width="100%" height="100%" viewBox="-4 -2 108 144">
 <title>Some data flows and storage levels in the Git revision control system</title>
 <desc>Some data flows and storage levels in the Git revision control system, drawn by CMG Lee.</desc>
 <defs>
  <linearGradient id="gradient_linear" x1="0%" y1="0%" x2="0%" y2="100%">
   <stop offset="0%" stop-color="#ffffff" stop-opacity="1"/>
   <stop offset="100%" stop-color="#000000" stop-opacity="0"/>
  </linearGradient>
  <radialGradient id="gradient_radial" cx="50%" cy="50%" r="50%" fx="25%" fy="25%">
   <stop offset="0%" stop-color="#ffffff"/>
   <stop offset="100%" stop-color="#dddddd"/>
  </radialGradient>
  <ellipse id="cloud" cx="0" cy="0" rx="16" ry="8" fill="url(#gradient_radial)"/>
  <path id="arrow" d="M -2 -5 L 0 0 L 2 -5" stroke="#000000" fill="none"/>
  <rect id="remote1" x="0" y="0" width="50" height="20" rx="5" ry="5" stroke="#000000" stroke-width="0.5"/>
  <rect id="remote2" x="55" y="0" width="50" height="20" rx="5" ry="5" stroke="#000000" stroke-width="0.5"/>
  <rect id="local" x="20" y="50" width="80" height="20" rx="5" ry="5" stroke="#000000" stroke-width="0.5"/>
  <rect id="index" x="40" y="85" width="60" height="20" rx="5" ry="5" stroke="#000000" stroke-width="0.5"/>
  <rect id="work" x="20" y="120" width="80" height="20" rx="5" ry="5" stroke="#000000" stroke-width="0.5"/>
 </defs>
 <g id="main" font-family="sans-serif" font-size="8" text-anchor="middle" stroke-linecap="round">
  <use xlink:href="#cloud" transform="translate(47,30)"/>
  <use xlink:href="#cloud" transform="translate(17,34)"/>
  <use xlink:href="#cloud" transform="translate(30,34)"/>
  <use xlink:href="#cloud" transform="translate(75,33)"/>
  <use xlink:href="#cloud" transform="translate(56,36)"/>

  <g stroke="#000000" fill="none">
   <path d="M 30 30 V 40 M 65 30 V 40" stroke-dasharray="0.1,1.5"/>
   <path d="M 30 20 V 30 M 30 40 V 120 M 65 20 V 30 M 65 40 V 120"/>
  </g>

  <use xlink:href="#remote1" fill="#66ccff"/>
  <use xlink:href="#remote1" fill="url(#gradient_linear)"/>
  <text x="25" y="12">Upstream</text>
  <use xlink:href="#remote2" fill="#66ccff"/>
  <use xlink:href="#remote2" fill="url(#gradient_linear)"/>
  <text x="81" y="12">Origin</text>

  <use xlink:href="#local" fill="#66cc66"/>
  <use xlink:href="#local" fill="url(#gradient_linear)"/>
  <text x="60" y="62">Local repository</text>
  <use xlink:href="#index" fill="#ffcc66"/>
  <use xlink:href="#index" fill="url(#gradient_linear)"/>
  <text x="70" y="97">Index (cache)</text>
  <use xlink:href="#work" fill="#ff6666"/>
  <use xlink:href="#work" fill="url(#gradient_linear)"/>
  <text x="60" y="132">Working directory</text>
 </g>
</svg>